# xmcd CD database file
#
# Track frame offsets:
#	150
#	12542
#	22427
#	35345
#	47887
#	59417
#	72707
#	84092
#	97070
#	108262
#	119945
#	131817
#	142075
#	153825
#	165717
#	179707
#	193127
#	206127
#	219740
#	231105
#	243812
#	258292
#	270295
#	283872
#
# Disc length: 3939 seconds
#
# Revision: 0
# Processed by: cddbd v1.4PL0 Copyright (c) Steve Scherf et al.
# Submitted via: CDex 1.50
#
DISCID=7c0f6118
DTITLE=Various Artist - Jazzin' and Swingin' in Berlin 1941-1943
DYEAR=1942
DGENRE=Jazz
TTITLE0=Sie will nicht Blumen und nicht Schokolade (Carste)
TTITLE1=Keinen Tag ohne Liebe (Jack)
TTITLE2=Melodie in F (Mobiglia)
TTITLE3=Ich wüßt' so gern (Haentzschel)
TTITLE4=Ernst und heiter (Leschetitzki)
TTITLE5=Improvisation (Angeli)
TTITLE6=Gut gelaunt (Zacharias)
TTITLE7=Wen ich liebe... (Jary)
TTITLE8=Hallo, Hella! (Zacharias)
TTITLE9=Er heißt Waldemar (Jary)
TTITLE10=Loesje (Bultermann)
TTITLE11=Tanz der Pinguine (Mück)
TTITLE12=Rugby (Hasenpflug)
TTITLE13=Melodie in Moll (Winter)
TTITLE14=Ti-Pi-Tin (Grever)
TTITLE15=Congo (Winter)
TTITLE16=Harry und seine Trommel (de Weille)
TTITLE17=Was eine Frau im Frühling träumt (Walter Kollo)
TTITLE18=Die Trommel und ihr Rhythmus (Brocksieper)
TTITLE19=Rip-Tip-Tap (Mück)
TTITLE20=Melanie (Ja, Musik wie noch nie) (Jary)
TTITLE21=Peter, Peter, wo warst du heute nacht? (Traxler)
TTITLE22=Sogno (Traum) (Vecchio)
TTITLE23=Tullios Rhythmen (Mobiglia)
EXTD=YEAR: 1942
EXTT0=
EXTT1=
EXTT2=
EXTT3=
EXTT4=
EXTT5=
EXTT6=
EXTT7=
EXTT8=
EXTT9=
EXTT10=
EXTT11=
EXTT12=
EXTT13=
EXTT14=
EXTT15=
EXTT16=
EXTT17=
EXTT18=
EXTT19=
EXTT20=
EXTT21=
EXTT22=
EXTT23=
PLAYORDER=
